<?xml version="1.0" encoding="UTF-8" standalone="no"?>
<svg
   height="24px"
   viewBox="0 -960 960 960"
   width="24px"
   fill="#FFFFFF"
   version="1.1"
   id="svg1"
   sodipodi:docname="watchface-aod.svg"
   xml:space="preserve"
   inkscape:version="1.4 (e7c3feb100, 2024-10-09)"
   xmlns:inkscape="http://www.inkscape.org/namespaces/inkscape"
   xmlns:sodipodi="http://sodipodi.sourceforge.net/DTD/sodipodi-0.dtd"
   xmlns="http://www.w3.org/2000/svg"
   xmlns:svg="http://www.w3.org/2000/svg"><defs
     id="defs1" /><sodipodi:namedview
     id="namedview1"
     pagecolor="#505050"
     bordercolor="#eeeeee"
     borderopacity="1"
     inkscape:showpageshadow="0"
     inkscape:pageopacity="0"
     inkscape:pagecheckerboard="0"
     inkscape:deskcolor="#505050"
     inkscape:zoom="24.542498"
     inkscape:cx="7.7824189"
     inkscape:cy="12.977489"
     inkscape:window-width="1920"
     inkscape:window-height="1014"
     inkscape:window-x="0"
     inkscape:window-y="0"
     inkscape:window-maximized="1"
     inkscape:current-layer="svg1" /><path
     d="m 480,-200.10443 q -116.62315,0 -198.25937,-81.6362 -81.6362,-81.63622 -81.6362,-198.25937 0,-116.62315 81.6362,-198.25937 81.63622,-81.6362 198.25937,-81.6362 10.88482,0 21.38091,0.77749 10.49609,0.77748 20.60342,2.33246 -31.87699,22.54715 -50.92544,58.70032 -19.04845,36.15318 -19.04845,78.13751 0,69.9739 48.98173,118.95562 48.98172,48.98173 118.95562,48.98173 42.76182,0 78.52625,-19.04845 35.76443,-19.04845 58.31158,-50.92544 1.55498,10.10733 2.33246,20.60342 0.77749,10.49609 0.77749,21.38091 0,116.62315 -81.6362,198.25937 -81.63622,81.6362 -198.25937,81.6362 z"
     id="path1"
     style="stroke-width:0.777487" /></svg>
